<?xml version="1.0" standalone="no"?>
<!DOCTYPE svg PUBLIC "-//W3C//DTD SVG 20010904//EN"
 "http://www.w3.org/TR/2001/REC-SVG-20010904/DTD/svg10.dtd">
<svg version="1.0" xmlns="http://www.w3.org/2000/svg"
 width="976.000000pt" height="976.000000pt" viewBox="0 0 976.000000 976.000000"
 preserveAspectRatio="xMidYMid meet">
<metadata>
Created by potrace 1.11, written by Peter Selinger 2001-2013
</metadata>
<g transform="translate(0.000000,976.000000) scale(0.100000,-0.100000)"
fill="#000000" stroke="none">
<path d="M7510 9742 c-30 -10 -68 -26 -85 -34 -25 -14 -153 -105 -190 -136 -6
-5 -35 -25 -65 -45 -30 -20 -59 -41 -65 -45 -114 -92 -577 -349 -760 -423 -33
-13 -62 -26 -65 -29 -5 -5 -67 -29 -85 -33 -5 -1 -12 -4 -15 -7 -6 -6 -69 -30
-93 -35 -9 -2 -22 -7 -27 -10 -5 -3 -18 -8 -27 -10 -10 -3 -45 -14 -78 -26
-33 -11 -67 -22 -75 -24 -8 -2 -54 -15 -103 -29 -80 -24 -128 -36 -199 -50
-16 -3 -40 -9 -55 -12 -16 -3 -39 -7 -53 -9 -14 -2 -25 -4 -25 -5 0 -1 -13 -3
-30 -5 -16 -2 -48 -7 -70 -10 -22 -4 -55 -8 -73 -10 -18 -1 -56 -6 -85 -9 -29
-4 -110 -9 -182 -11 -71 -3 -139 -7 -150 -9 -89 -18 -133 -42 -197 -107 -74
-76 -94 -135 -101 -297 -1 -28 2 -52 6 -52 5 0 5 -5 1 -12 -9 -14 -12 -158 -4
-158 3 0 6 -9 6 -20 0 -11 -3 -20 -6 -20 -3 0 -5 -34 -5 -75 0 -41 4 -75 8
-75 5 0 5 -5 1 -11 -9 -16 -11 -149 -1 -149 5 0 5 -5 1 -12 -9 -14 -9 -92 0
-107 4 -6 4 -11 -1 -11 -4 0 -8 -36 -8 -80 0 -44 2 -80 5 -80 3 0 6 -9 6 -20
0 -11 -3 -20 -6 -20 -3 0 -5 -34 -5 -75 0 -41 4 -75 8 -75 5 0 5 -5 1 -11 -9
-16 -11 -149 -1 -149 5 0 5 -5 1 -12 -9 -14 -9 -92 0 -107 4 -6 4 -11 -1 -11
-4 0 -8 -36 -8 -80 0 -44 2 -80 5 -80 3 0 6 -9 6 -20 0 -11 -3 -20 -6 -20 -3
0 -5 -34 -5 -75 0 -41 4 -75 8 -75 5 0 5 -5 1 -11 -9 -16 -11 -149 -1 -149 5
0 5 -5 1 -12 -9 -14 -9 -92 0 -107 4 -6 4 -11 -1 -11 -4 0 -8 -36 -8 -80 0
-44 2 -80 5 -80 3 0 6 -9 6 -20 0 -11 -3 -20 -6 -20 -3 0 -5 -34 -5 -75 0 -41
4 -75 8 -75 5 0 5 -5 1 -11 -9 -16 -11 -149 -1 -149 5 0 5 -5 1 -12 -9 -14 -9
-92 0 -107 4 -6 4 -11 -1 -11 -4 0 -8 -36 -8 -80 0 -44 2 -80 5 -80 3 0 6 -9
6 -20 0 -11 -3 -20 -6 -20 -3 0 -5 -34 -5 -75 0 -41 4 -75 8 -75 5 0 5 -5 1
-11 -9 -16 -11 -149 -1 -149 5 0 5 -5 1 -12 -9 -14 -9 -92 0 -107 4 -6 4 -11
-1 -11 -4 0 -8 -36 -8 -80 0 -44 2 -80 5 -80 3 0 6 -9 6 -20 0 -11 -3 -20 -6
-20 -3 0 -5 -34 -5 -75 0 -41 4 -75 8 -75 5 0 5 -5 1 -11 -9 -15 -10 -152 0
-167 4 -6 4 -12 -1 -12 -4 0 -8 -41 -8 -90 0 -50 3 -90 7 -90 4 0 4 -10 0 -22
-9 -30 -9 -89 1 -106 5 -6 5 -12 0 -12 -4 0 -8 -41 -8 -90 0 -50 3 -90 7 -90
4 0 4 -10 -1 -23 -5 -14 -5 -30 0 -40 6 -9 6 -17 2 -17 -4 0 -8 -36 -8 -80 0
-44 2 -80 5 -80 3 0 6 -9 6 -20 0 -11 -3 -20 -6 -20 -3 0 -5 -34 -5 -75 0 -41
4 -75 8 -75 5 0 5 -5 1 -11 -10 -16 -11 -89 -1 -89 5 0 5 -4 2 -10 -9 -15 26
-69 50 -76 58 -19 74 -13 148 54 40 35 82 74 93 86 19 18 90 82 167 149 12 10
35 28 50 40 15 12 42 35 60 51 18 15 51 43 73 62 23 19 48 49 55 66 11 26 13
412 13 2080 0 1126 3 2048 6 2049 3 0 14 2 25 4 11 3 43 7 70 9 28 3 61 7 75
10 14 2 43 7 65 10 22 3 49 8 60 10 11 2 56 12 100 21 44 9 89 19 100 21 133
27 356 94 545 165 47 17 91 31 98 32 6 0 12 4 12 9 0 4 7 8 15 8 8 0 40 12 72
27 32 15 64 28 71 29 7 1 24 9 37 18 13 9 29 16 35 16 23 0 560 277 580 299 3
4 25 17 50 30 25 14 48 29 52 35 4 6 8 7 8 2 0 -5 7 -3 15 4 13 11 15 -330 12
-3001 l-2 -3014 -22 -30 c-11 -16 -45 -43 -75 -59 -101 -55 -203 -106 -211
-106 -5 0 -22 -9 -38 -21 -16 -11 -29 -17 -29 -14 0 4 -10 1 -22 -7 -32 -20
-232 -103 -233 -96 -1 2 -12 -4 -25 -13 -14 -9 -43 -22 -65 -29 -22 -7 -53
-18 -70 -25 -16 -8 -82 -30 -145 -50 -63 -20 -132 -43 -152 -51 -21 -8 -38
-11 -38 -9 0 3 -8 1 -18 -4 -11 -6 -30 -12 -43 -14 -13 -3 -44 -10 -69 -17
-25 -7 -52 -14 -60 -15 -8 -2 -30 -9 -49 -14 -19 -6 -37 -9 -39 -6 -3 2 -13 0
-24 -6 -10 -5 -32 -12 -48 -14 -16 -2 -37 -6 -47 -9 -10 -3 -34 -7 -53 -10
-19 -2 -55 -9 -80 -14 -25 -6 -70 -14 -100 -17 -30 -4 -57 -8 -60 -10 -3 -2
-29 -6 -57 -9 -29 -3 -77 -9 -105 -12 -88 -11 -109 -13 -208 -20 -116 -8 -580
-12 -580 -4 0 3 -24 5 -53 6 -69 1 -248 17 -337 30 -25 4 -54 8 -65 10 -32 3
-146 22 -185 30 -14 3 -47 10 -73 14 -26 5 -56 12 -67 15 -10 3 -27 8 -37 10
-10 2 -38 8 -63 14 -25 7 -56 14 -70 17 -14 2 -34 8 -45 11 -23 8 -31 10 -63
17 -12 3 -26 7 -30 10 -5 3 -19 7 -33 10 -13 2 -73 21 -134 41 -60 21 -114 38
-120 40 -5 1 -23 8 -40 15 -16 7 -32 14 -35 15 -30 7 -87 29 -95 36 -5 5 -17
9 -27 9 -10 0 -18 5 -18 10 0 6 -3 9 -7 8 -9 -1 -28 5 -102 38 -29 13 -58 24
-64 24 -6 0 -18 6 -26 13 -9 8 -46 27 -83 43 -38 15 -68 32 -68 36 0 5 -6 8
-13 8 -7 0 -60 26 -118 58 -69 39 -111 69 -126 91 l-23 34 0 2978 c0 1639 3
2979 8 2979 4 0 18 -9 32 -20 14 -11 30 -20 36 -20 5 0 19 -8 30 -17 21 -19
31 -25 110 -68 27 -14 65 -36 84 -47 40 -24 376 -194 436 -220 21 -10 74 -33
117 -52 42 -19 77 -33 77 -30 0 3 15 -3 33 -12 59 -31 67 -34 85 -34 10 0 22
-4 27 -8 6 -5 69 -28 140 -51 72 -23 144 -46 162 -52 37 -11 30 -10 188 -43
66 -14 146 -27 177 -30 l57 -4 0 177 c1 238 11 340 37 362 8 6 14 20 14 30 0
11 3 19 8 19 4 0 18 18 31 40 14 21 27 38 30 36 3 -1 17 8 30 21 13 13 20 23
15 24 -5 0 -16 2 -24 4 -8 2 -26 6 -40 9 -14 3 -36 8 -50 12 -48 11 -115 26
-135 29 -36 7 -190 45 -205 52 -18 7 -26 9 -62 16 -15 3 -31 8 -36 11 -5 3
-19 7 -33 10 -23 4 -152 48 -194 66 -11 4 -58 23 -105 41 -47 18 -89 35 -95
39 -5 4 -21 11 -35 15 -21 6 -158 73 -350 170 -19 10 -43 25 -52 33 -10 8 -18
11 -18 6 0 -5 -4 -4 -8 2 -4 5 -36 27 -72 47 -78 45 -78 45 -210 131 -58 38
-107 71 -110 75 -3 3 -12 11 -21 16 -9 6 -52 35 -95 65 -129 90 -228 117 -354
95 -86 -14 -212 -79 -254 -132 -43 -53 -84 -118 -79 -125 2 -5 0 -8 -5 -8 -10
0 -30 -61 -39 -118 -3 -20 -6 -449 -7 -952 -1 -732 -4 -914 -14 -912 -13 2
-187 126 -210 149 -7 7 -17 13 -21 13 -5 0 -19 10 -32 23 -13 13 -44 38 -69
57 -77 59 -238 195 -327 276 -51 47 -152 100 -204 107 -19 3 -36 6 -39 7 -9 3
-114 0 -135 -4 -162 -32 -289 -142 -339 -292 -15 -46 -16 -154 -13 -1310 1
-692 6 -1272 10 -1289 31 -115 114 -306 156 -357 6 -7 31 -38 55 -68 43 -55
167 -176 262 -257 27 -23 60 -52 74 -64 14 -12 45 -38 70 -58 25 -20 51 -42
58 -48 7 -7 41 -34 75 -60 34 -26 64 -50 67 -53 13 -15 261 -190 270 -190 5 0
10 -4 10 -8 0 -5 12 -15 28 -23 15 -8 36 -22 46 -31 11 -10 26 -18 33 -18 7 0
13 -4 13 -8 0 -5 17 -17 37 -28 21 -10 44 -25 51 -31 7 -7 16 -13 20 -13 4 0
19 -10 33 -23 l26 -22 0 -596 c1 -327 4 -620 9 -650 9 -60 8 -57 18 -84 5 -11
15 -38 23 -59 31 -84 114 -178 208 -236 31 -19 82 -51 113 -71 31 -20 67 -39
80 -43 12 -4 22 -12 22 -17 0 -5 9 -9 19 -9 11 0 21 -3 23 -7 5 -12 176 -100
355 -184 76 -35 381 -160 400 -163 7 -1 16 -5 19 -9 4 -4 16 -7 26 -7 10 0 26
-4 36 -9 16 -10 127 -50 137 -51 3 0 10 -2 17 -5 35 -10 164 -49 173 -51 6 -2
19 -5 30 -7 11 -3 63 -16 115 -30 52 -14 120 -30 150 -36 61 -13 76 -16 137
-31 24 -5 46 -9 50 -8 5 1 19 -2 33 -5 14 -4 41 -9 60 -12 19 -2 46 -7 59 -9
12 -3 42 -7 65 -10 22 -3 57 -7 76 -10 55 -8 120 -16 185 -21 33 -3 80 -7 105
-10 146 -17 604 -23 750 -10 36 3 110 9 165 14 55 5 107 9 115 9 17 1 73 9
110 16 14 2 50 7 81 11 31 3 66 8 78 10 47 11 58 13 104 19 27 4 56 9 65 11
10 2 62 13 117 25 55 12 109 24 120 26 11 3 31 7 45 10 37 9 41 10 85 22 22 6
51 13 65 16 151 31 651 207 868 307 35 16 65 29 68 29 3 0 66 31 142 68 441
220 564 307 632 448 31 66 34 74 50 149 5 22 9 312 10 643 0 506 3 606 14 618
8 8 18 14 21 14 9 0 271 173 342 226 29 22 76 55 104 74 28 19 56 40 62 45 19
17 131 101 145 109 10 6 12 -199 12 -1032 0 -993 -1 -1042 -20 -1108 -38 -137
-94 -207 -265 -333 -60 -44 -114 -84 -120 -88 -30 -23 -126 -83 -134 -83 -5 0
-11 -4 -13 -8 -1 -5 -37 -28 -78 -52 -41 -24 -86 -52 -99 -62 -13 -10 -27 -15
-32 -12 -5 3 -12 -2 -15 -10 -3 -9 -10 -16 -15 -16 -6 0 -58 -26 -117 -57
-122 -66 -394 -196 -437 -209 -5 -2 -66 -26 -134 -54 -166 -68 -469 -171 -601
-205 -8 -2 -40 -11 -70 -20 -30 -9 -66 -18 -80 -21 -14 -3 -43 -10 -65 -16
-22 -5 -48 -12 -58 -14 -10 -2 -28 -6 -39 -10 -11 -3 -30 -7 -41 -9 -12 -2
-32 -6 -44 -9 -36 -9 -58 -14 -94 -20 -19 -3 -45 -8 -59 -11 -14 -3 -50 -9
-80 -15 -30 -5 -66 -12 -80 -15 -14 -3 -45 -7 -70 -10 -25 -3 -56 -8 -70 -11
-14 -2 -45 -7 -70 -10 -25 -3 -56 -7 -70 -9 -14 -2 -54 -6 -90 -9 -36 -3 -84
-9 -108 -11 -157 -20 -817 -41 -844 -27 -5 2 -68 5 -140 7 -73 2 -158 6 -188
9 -30 3 -82 8 -115 12 -33 3 -78 8 -100 10 -22 3 -60 7 -85 10 -25 2 -58 6
-75 9 -16 3 -52 7 -80 10 -27 3 -61 7 -75 10 -14 3 -36 7 -50 10 -28 4 -72 12
-110 20 -34 7 -88 16 -114 19 -12 1 -27 6 -34 10 -7 4 -12 5 -12 3 0 -2 -26 2
-57 10 -32 8 -74 17 -93 20 -19 3 -37 8 -40 12 -3 3 -18 7 -35 9 -16 2 -86 19
-155 39 -69 19 -129 36 -135 37 -5 1 -71 22 -145 46 -74 24 -137 45 -140 45
-3 1 -18 7 -33 13 -16 7 -32 12 -37 12 -5 0 -45 15 -89 34 -45 19 -81 33 -81
30 0 -2 -29 10 -64 26 -35 15 -67 26 -70 23 -3 -4 -6 -2 -6 3 0 6 -17 16 -37
23 -44 16 -376 173 -383 182 -3 3 -30 18 -60 33 -30 15 -62 31 -70 36 -8 5
-57 34 -108 65 -51 30 -97 55 -103 55 -5 0 -9 5 -9 10 0 6 -7 10 -15 10 -8 0
-15 3 -15 8 0 4 -20 18 -45 32 -25 14 -45 28 -45 32 0 5 -6 8 -13 8 -7 0 -22
8 -33 18 -10 10 -35 28 -54 42 -19 13 -37 27 -40 30 -3 3 -22 16 -42 30 -21
14 -38 28 -38 33 0 4 -4 7 -9 7 -16 0 -82 63 -121 115 -46 62 -89 169 -95 235
-2 28 -7 56 -11 62 -4 7 -3 8 4 4 9 -5 9 -1 3 17 -6 16 -6 28 2 36 7 7 7 11 1
11 -12 0 -12 29 -1 47 4 6 3 14 -2 18 -6 3 -7 15 -1 29 4 12 4 29 0 36 -5 8
-5 21 0 30 5 9 5 22 0 30 -5 8 -5 21 0 31 5 9 7 19 4 22 -10 10 -11 57 -2 57
5 0 6 6 1 13 -9 15 -11 65 -2 92 3 11 3 29 -1 40 -4 11 -3 28 2 37 5 10 5 18
0 18 -8 0 -7 69 2 77 3 3 1 15 -4 27 -4 13 -4 29 1 39 7 11 6 17 0 17 -6 0 -6
11 -1 29 4 16 5 32 2 35 -10 10 -8 76 1 76 6 0 6 5 1 13 -11 15 -11 38 -1 54
5 7 4 13 0 13 -5 0 -8 15 -8 33 3 68 -21 103 -135 197 -63 53 -198 168 -220
190 -66 62 -205 186 -216 193 -8 4 -26 6 -41 3 -16 -2 -31 -5 -35 -5 -3 -1
-16 -16 -27 -35 -21 -34 -22 -37 -21 -833 1 -457 5 -819 11 -848 5 -27 12 -67
14 -88 3 -21 10 -47 15 -58 6 -10 9 -19 6 -19 -10 0 44 -143 83 -221 68 -136
199 -301 309 -391 75 -61 265 -197 367 -263 66 -43 132 -86 147 -96 15 -11 30
-19 34 -19 3 0 18 -8 32 -19 15 -10 54 -33 87 -51 33 -18 83 -45 112 -61 104
-58 288 -149 300 -149 7 0 13 -4 13 -9 0 -5 10 -13 23 -16 12 -4 45 -17 72
-30 87 -40 138 -62 195 -85 30 -12 69 -28 85 -35 17 -7 80 -31 140 -53 61 -22
119 -44 130 -48 11 -4 22 -8 25 -9 33 -8 118 -40 127 -48 7 -5 13 -7 13 -3 0
3 12 1 28 -5 15 -6 41 -15 57 -19 17 -5 86 -25 155 -45 69 -20 132 -39 140
-40 8 -2 61 -15 117 -29 56 -14 112 -27 125 -30 13 -2 50 -11 83 -20 33 -8 76
-17 95 -20 32 -5 52 -8 113 -21 12 -2 36 -7 52 -10 17 -3 39 -7 51 -10 11 -2
43 -7 70 -10 49 -6 77 -10 123 -20 13 -2 47 -7 75 -9 28 -3 69 -8 91 -12 22
-4 54 -8 70 -9 17 -2 30 -3 30 -4 0 -1 32 -4 70 -6 39 -3 95 -7 125 -9 306
-28 942 -28 1225 -1 22 2 69 6 105 9 84 7 156 15 200 22 19 3 54 7 77 9 43 5
86 11 133 20 14 3 43 7 65 10 22 2 64 10 92 16 29 5 57 8 62 5 5 -4 11 -2 13
3 1 5 21 11 43 14 59 8 177 33 286 61 52 14 106 27 120 30 13 3 34 7 47 10 12
4 30 8 40 10 9 2 58 16 107 31 50 14 98 28 108 31 9 2 25 6 35 8 9 3 78 25
152 51 74 25 142 48 150 50 8 1 80 28 160 59 127 50 187 75 365 152 22 10 43
18 47 18 4 1 13 7 19 14 7 6 18 12 24 12 16 0 323 157 450 230 164 95 181 105
330 204 251 165 455 337 528 446 16 25 38 54 48 65 10 11 39 63 64 115 26 52
50 102 55 110 7 14 23 74 24 92 1 3 4 10 9 14 4 4 7 17 7 29 0 12 3 25 7 29 4
3 8 19 9 34 1 15 6 45 10 67 5 22 9 639 9 1370 0 1376 0 1382 -38 1433 -5 6
-7 12 -3 12 11 0 -64 113 -103 153 -32 34 -126 107 -126 98 0 -2 -21 8 -46 22
-26 15 -49 24 -52 21 -3 -3 -15 0 -28 6 -44 24 -252 18 -294 -8 -5 -4 -19 -8
-29 -9 -11 -2 -27 -10 -36 -18 -9 -8 -21 -15 -26 -15 -11 0 -76 -51 -154 -120
-30 -26 -91 -78 -135 -114 -44 -37 -87 -72 -95 -79 -8 -7 -42 -33 -75 -57 -33
-25 -62 -47 -65 -50 -13 -14 -90 -71 -91 -68 -4 8 -6 1865 -3 1879 4 13 52 50
153 114 85 55 311 210 411 283 109 79 126 88 130 71 3 -11 5 -256 4 -543 0
-360 3 -528 10 -537 24 -31 58 -36 116 -18 60 19 217 23 260 7 14 -6 32 -11
40 -13 34 -8 131 -58 157 -82 18 -16 73 -7 96 16 18 18 19 48 19 913 0 949 0
962 -48 1063 -66 141 -237 249 -389 246 -85 -2 -180 -27 -216 -58 -8 -7 -21
-13 -27 -13 -7 0 -17 -9 -24 -20 -7 -11 -16 -20 -20 -20 -7 0 -44 -29 -88 -70
-9 -8 -38 -33 -65 -55 -28 -21 -58 -48 -67 -59 -10 -10 -18 -16 -18 -13 0 4
-16 -8 -35 -26 -19 -17 -55 -48 -81 -67 -25 -19 -51 -40 -58 -45 -6 -6 -38
-31 -71 -55 -33 -25 -69 -53 -79 -62 -11 -10 -23 -18 -27 -18 -4 0 -24 -15
-45 -34 -21 -19 -41 -32 -44 -30 -2 3 -5 440 -6 972 -1 532 -5 983 -9 1002
-24 121 -132 253 -254 312 -57 27 -79 32 -161 35 -73 2 -108 -1 -150 -15z
m-6405 -2784 c55 -40 102 -76 103 -80 2 -4 8 -8 14 -8 6 0 27 -13 47 -28 20
-16 79 -58 131 -93 52 -35 97 -67 98 -71 2 -4 8 -8 13 -8 7 0 140 -81 159 -97
5 -5 7 -1893 1 -1893 -4 0 -103 71 -111 80 -3 3 -27 21 -55 39 -27 19 -52 38
-55 41 -3 3 -32 28 -65 54 -158 127 -317 277 -356 335 -16 25 -34 63 -41 85
-8 30 -12 279 -13 881 -1 462 0 843 2 847 2 4 9 3 16 -2 7 -6 57 -43 112 -82z"/>
</g>
</svg>
